<?xml version="1.0" standalone="no"?>
<!DOCTYPE svg PUBLIC "-//W3C//DTD SVG 20010904//EN"
 "http://www.w3.org/TR/2001/REC-SVG-20010904/DTD/svg10.dtd">
<svg version="1.0" xmlns="http://www.w3.org/2000/svg"
 width="1515.000000pt" height="633.000000pt" viewBox="0 0 1515.000000 633.000000"
 preserveAspectRatio="xMidYMid meet">

<g transform="translate(0.000000,633.000000) scale(0.100000,-0.100000)"
fill="#000000" stroke="none">
<path d="M3700 5575 c0 -10 10 -15 31 -15 29 0 30 -1 15 -22 -9 -12 -16 -33
-16 -45 0 -13 -5 -23 -12 -23 -9 0 -9 -3 1 -12 10 -11 15 -9 27 6 8 11 14 30
14 42 0 12 4 24 9 26 5 2 13 15 16 31 7 27 6 27 -39 27 -34 0 -46 -4 -46 -15z"/>
<path d="M3820 5520 l0 -70 35 0 c44 0 54 19 48 88 l-6 52 -38 0 -39 0 0 -70z
m60 34 c0 -2 -9 -4 -21 -4 -11 0 -18 4 -14 10 5 8 35 3 35 -6z m0 -53 c0 -5
-7 -14 -15 -21 -8 -7 -15 -10 -15 -7 0 3 -3 12 -6 21 -4 12 0 16 15 16 12 0
21 -4 21 -9z"/>
<path d="M3984 5565 c-18 -28 -14 -77 10 -101 24 -23 59 -17 74 13 11 25 10
30 -12 52 -21 20 -27 22 -40 11 -13 -10 -16 -10 -16 4 0 16 10 20 43 17 9 -1
17 4 17 13 0 27 -57 20 -76 -9z m48 -81 c-13 -23 -25 -1 -16 28 6 19 7 19 16
5 5 -10 5 -23 0 -33z"/>
<path d="M4097 5583 c-12 -11 -8 -108 5 -121 18 -18 56 -14 68 7 11 22 13 64
4 99 -5 17 -14 22 -38 22 -18 0 -36 -3 -39 -7z m53 -58 c0 -18 -7 -38 -15 -45
-13 -11 -15 -6 -15 38 0 42 3 50 15 46 9 -4 15 -19 15 -39z"/>
<path d="M4202 5578 c-17 -17 -15 -96 2 -114 8 -8 24 -14 36 -14 33 0 50 24
50 72 0 50 -13 68 -50 68 -14 0 -31 -5 -38 -12z m48 -58 c0 -27 -4 -50 -10
-50 -5 0 -10 23 -10 50 0 28 5 50 10 50 6 0 10 -22 10 -50z"/>
<path d="M4360 5504 c0 -41 4 -54 15 -54 11 0 15 11 15 40 0 29 4 40 15 40 11
0 15 -11 15 -40 0 -29 4 -40 15 -40 11 0 15 11 15 40 0 29 4 40 15 40 11 0 15
-11 15 -40 0 -29 4 -40 16 -40 12 0 14 10 12 53 l-3 52 -72 1 -73 2 0 -54z"/>
<path d="M4540 5503 c0 -34 4 -52 10 -48 6 3 10 15 10 25 0 62 37 68 42 8 4
-43 11 -38 22 15 10 44 36 34 36 -14 0 -24 4 -38 10 -34 14 9 12 81 -2 93 -7
5 -39 10 -70 10 l-58 0 0 -55z"/>
<path d="M3924 5479 c-10 -17 13 -36 27 -22 12 12 4 33 -11 33 -5 0 -12 -5
-16 -11z"/>
<path d="M2440 5105 l0 -365 -547 -2 -548 -3 -3 -22 c-2 -13 1 -23 7 -23 8 0
11 -211 11 -705 l0 -705 -44 0 c-52 0 -76 -21 -59 -50 8 -12 8 -21 2 -27 -6
-6 -9 -23 -7 -39 3 -27 6 -29 56 -32 36 -2 52 -7 52 -17 0 -10 -16 -15 -52
-17 l-53 -3 0 -70 0 -70 53 -3 52 -3 0 -44 0 -44 -26 14 c-32 16 -47 11 -70
-23 l-18 -27 -5 23 c-9 37 -26 31 -29 -10 l-3 -38 44 0 c41 0 44 2 40 24 -6
27 13 44 30 27 9 -9 8 -17 -1 -32 -15 -24 -8 -39 10 -21 18 18 28 15 28 -8 0
-11 -7 -20 -15 -20 -8 0 -15 -9 -15 -20 0 -25 -12 -25 -35 0 -31 34 -85 21
-85 -20 0 -22 36 -55 44 -41 4 5 2 12 -4 16 -5 3 -10 13 -10 21 0 24 35 16 65
-16 16 -16 35 -30 42 -30 8 0 13 -12 13 -30 0 -26 -4 -30 -26 -30 -14 0 -45
11 -69 24 -24 14 -46 22 -49 19 -3 -4 -6 -24 -6 -45 0 -27 4 -38 15 -38 9 0
15 9 15 21 0 12 5 19 13 17 6 -2 33 -10 60 -18 50 -15 63 -40 30 -59 -17 -10
-17 -10 0 -11 12 0 17 -8 17 -27 0 -21 -3 -24 -12 -15 -27 27 -78 7 -78 -30 0
-10 -7 -18 -16 -18 -12 0 -14 7 -9 30 8 37 -11 41 -27 5 -9 -21 -8 -28 7 -45
23 -25 90 -27 117 -3 17 15 18 14 18 -20 0 -41 -2 -42 -31 -24 -18 11 -24 8
-49 -21 -19 -24 -30 -30 -35 -21 -5 7 0 18 11 26 18 14 18 14 -5 11 -28 -4
-47 -29 -38 -52 5 -13 19 -15 77 -13 l70 2 0 -708 c0 -620 -2 -708 -15 -713
-8 -4 -15 -15 -15 -26 l0 -21 1043 7 c573 3 1144 9 1270 12 l227 7 0 -102 0
-101 330 0 330 0 0 98 0 98 703 -1 702 0 3 450 2 450 280 72 280 71 0 -264 0
-264 1430 0 1430 0 0 -440 0 -440 1310 0 1310 0 0 440 0 440 1293 0 c992 0
1296 3 1305 12 16 16 18 3848 2 3848 -7 0 -10 -647 -10 -1920 l0 -1920 -1295
0 -1295 0 0 235 0 235 1043 0 c798 0 1046 3 1055 12 16 16 18 3358 2 3358 -7
0 -10 -565 -10 -1675 l0 -1675 -1045 0 -1045 0 0 1605 0 1605 -1310 0 -1310 0
0 -1605 0 -1605 -1180 0 -1180 0 0 75 c0 41 3 75 8 75 4 0 504 128 1112 284
608 157 1107 283 1109 280 2 -2 -22 -58 -53 -125 -31 -67 -55 -128 -52 -136
15 -37 43 -2 107 136 38 80 75 149 84 153 8 5 15 20 15 33 0 19 -29 44 -150
130 -143 102 -180 118 -180 81 0 -8 59 -56 130 -107 72 -51 127 -95 123 -99
-5 -4 -503 -133 -1108 -288 -605 -155 -1110 -285 -1122 -288 l-23 -6 0 1576
c0 1044 -3 1576 -10 1576 -7 0 -10 -533 -10 -1578 l0 -1579 -220 -56 c-120
-32 -224 -57 -230 -57 -7 0 -10 518 -10 1635 0 1083 -3 1635 -10 1635 -7 0
-10 -553 -10 -1640 l0 -1639 -42 -12 c-113 -30 -504 -129 -512 -129 -5 0 -7
756 -4 1825 l5 1825 -23 0 c-15 0 -24 -6 -24 -15 0 -13 -196 -15 -1705 -15
-1509 0 -1705 2 -1705 15 0 9 -9 15 -25 15 l-25 0 0 -365z m3460 -50 l0 -335
-80 0 -80 0 0 130 c0 124 -1 130 -20 130 -11 0 -23 -7 -26 -15 -5 -13 -181
-15 -1500 -15 -1487 0 -1494 0 -1494 20 0 15 -7 20 -25 20 l-25 0 0 -135 0
-135 -80 0 -80 0 0 335 0 335 1705 0 1705 0 0 -335z m6030 -1585 l0 -1580
-590 0 -590 0 0 1138 c0 626 3 1261 7 1410 l6 272 44 0 c32 0 43 4 43 15 0 18
-31 20 -47 4 -16 -16 -43 -3 -43 21 0 17 -6 20 -45 20 -44 0 -45 0 -45 34 0
41 -23 65 -45 46 -8 -7 -20 -8 -27 -4 -7 5 -28 9 -45 11 l-33 2 0 -50 c0 -37
4 -49 15 -49 10 0 15 10 15 34 0 21 6 36 15 40 12 4 15 -3 15 -34 0 -29 4 -40
15 -40 10 0 15 10 15 34 0 21 6 36 15 40 12 4 15 -3 15 -31 0 -22 7 -41 18
-49 14 -11 -55 -13 -420 -14 -430 0 -438 0 -438 -20 0 -19 8 -20 433 -22 l432
-3 6 -195 c4 -107 7 -850 8 -1650 l1 -1455 -145 0 -145 0 0 1482 c0 1174 -3
1483 -12 1490 -7 4 -122 10 -255 11 -237 4 -243 3 -243 -16 0 -11 7 -22 15
-26 13 -5 15 -78 15 -575 0 -321 -4 -572 -9 -575 -5 -3 -14 1 -21 9 -15 19
-79 19 -102 1 -41 -30 -9 -75 53 -76 21 0 42 7 49 15 7 8 16 12 21 9 13 -7 11
-184 -1 -184 -5 0 -10 5 -10 10 0 7 -24 10 -62 8 -62 -3 -63 -3 -63 -32 0 -23
6 -31 28 -39 39 -13 97 -1 97 21 0 15 2 15 10 2 15 -23 13 -1013 -2 -1028 -9
-9 -78 -12 -250 -12 l-238 0 0 1580 0 1580 1260 0 1260 0 0 -1580z m-6240
1340 l0 -90 -1495 0 -1495 0 0 90 0 90 1495 0 1495 0 0 -90z m230 -1555 l0
-1444 -37 -10 c-21 -5 -64 -16 -95 -24 l-58 -15 0 1317 c0 725 3 1386 7 1469
l6 151 81 3 c45 2 84 2 89 0 4 -2 7 -653 7 -1447z m-3272 1358 l-3 -88 -85 0
-85 0 -3 88 -3 87 91 0 91 0 -3 -87z m3050 -5 l-3 -93 -1500 0 -1500 0 -3 93
-3 92 1506 0 1506 0 -3 -92z m-3248 2 l0 -80 -185 0 -185 0 0 -25 c0 -16 6
-25 15 -25 13 0 15 -194 15 -1685 0 -1489 -2 -1686 -15 -1691 -8 -4 -15 -15
-15 -25 0 -18 10 -19 185 -19 l185 0 0 -85 0 -85 -519 0 c-360 0 -522 3 -526
11 -4 6 -4 861 0 1900 l8 1889 518 0 519 0 0 -80z m3258 -1487 l-3 -1367 -575
-148 c-316 -81 -581 -148 -587 -148 -10 0 -13 95 -13 440 l0 440 -330 0 -330
0 0 -625 0 -625 -595 0 -595 0 0 1700 0 1700 1515 0 1515 0 -2 -1367z m-3258
-333 l0 -1690 -144 0 c-92 0 -147 4 -151 11 -4 6 -4 766 0 1690 l8 1679 143 0
144 0 0 -1690z m210 0 l0 -1691 -92 3 -93 3 -3 1688 -2 1687 95 0 95 0 0
-1690z m7710 87 c0 -811 -2 -1476 -4 -1478 -2 -2 -218 -3 -480 -1 l-476 2 0
237 0 236 451 -8 c431 -7 451 -6 464 11 12 16 14 208 15 1247 0 1084 2 1227
15 1227 13 0 15 -170 15 -1473z m360 245 c0 -942 3 -1231 12 -1240 9 -9 156
-12 600 -12 l588 0 0 -235 0 -235 -611 -2 c-336 -2 -613 -1 -615 1 -2 2 -4
667 -4 1478 0 1303 2 1473 15 1473 13 0 15 -143 15 -1228z m-410 -2 l0 -1220
-182 2 -183 3 -3 1205 c-1 663 0 1211 3 1218 3 9 50 12 185 12 l180 0 0 -1220z
m-8960 115 c0 -11 -12 -15 -45 -15 -33 0 -45 4 -45 15 0 11 12 15 45 15 33 0
45 -4 45 -15z m0 -60 c0 -11 -12 -15 -45 -15 -33 0 -45 4 -45 15 0 11 12 15
45 15 33 0 45 -4 45 -15z m8515 -10 c0 -11 -59 -19 -82 -11 -8 3 -11 11 -8 16
8 14 90 9 90 -5z m-8515 -110 c0 -10 -10 -15 -34 -15 -18 0 -39 7 -46 15 -11
13 -6 15 34 15 34 0 46 -4 46 -15z m0 -61 c0 -12 -9 -14 -42 -12 -59 4 -63 28
-4 28 35 0 46 -4 46 -16z m8505 -34 c10 -16 -14 -40 -40 -40 -30 0 -49 22 -33
38 15 15 65 16 73 2z m-8535 -505 c0 -16 -35 -21 -44 -6 -8 12 4 21 26 21 10
0 18 -7 18 -15z m0 -110 c0 -19 -20 -29 -32 -17 -8 8 -7 16 2 26 14 17 30 12
30 -9z m3150 -655 l0 -600 -90 0 -90 0 -2 533 c-3 524 -3 532 -23 532 -20 0
-20 -8 -23 -637 l-2 -638 -55 0 -55 0 -2 638 c-3 558 -5 637 -18 637 -13 0
-15 -67 -18 -532 l-2 -533 -90 0 -90 0 0 600 0 600 280 0 280 0 0 -600z m-97
-618 l97 -3 0 -94 0 -95 -105 0 -105 0 2 633 3 632 5 -535 5 -535 98 -3z
m2597 890 c0 -40 5 -73 12 -80 9 -9 287 -12 1190 -12 l1178 0 0 -235 0 -235
-1420 0 -1420 0 0 258 0 257 218 56 c119 31 223 57 230 58 8 1 12 -19 12 -67z
m-1060 -642 l0 -440 -695 0 -695 0 0 95 0 95 598 2 597 3 3 317 2 318 53 14
c85 24 122 34 130 35 4 1 7 -197 7 -439z m-210 75 l0 -305 -590 0 -591 0 3
157 3 157 570 147 c314 81 578 148 588 148 16 1 17 -20 17 -304z m4648 -230
l2 -210 155 4 c133 3 155 1 155 -12 0 -18 36 -29 68 -20 32 8 28 -17 -8 -52
-16 -16 -30 -32 -30 -37 0 -4 21 -7 48 -7 26 1 37 4 25 6 -28 5 -28 8 -2 44
14 20 19 38 15 54 -6 24 -4 25 41 25 l48 0 0 -42 c0 -36 4 -43 23 -47 29 -7
25 -27 -5 -23 -28 3 -30 -9 -4 -25 29 -18 61 17 61 67 0 21 -4 42 -10 45 -19
11 -10 25 16 25 21 0 24 -3 19 -20 -4 -12 -2 -27 5 -35 7 -9 8 -15 0 -20 -19
-12 -10 -44 18 -59 22 -11 31 -12 45 -1 13 10 16 24 13 74 -3 59 -2 61 22 61
19 0 23 -3 16 -17 -4 -10 -9 -34 -12 -54 -3 -28 1 -41 18 -57 19 -17 26 -19
42 -9 16 10 19 21 16 75 l-3 62 213 0 c205 0 212 1 212 20 0 19 -8 20 -432 22
l-433 3 0 185 0 185 608 3 607 2 0 -415 0 -415 -1260 0 -1260 0 0 415 0 415
473 -2 472 -3 3 -210z m310 28 l-3 -188 -130 0 -130 0 -3 188 -2 187 135 0
135 0 -2 -187z m-6548 -208 l0 -105 -100 0 -100 0 0 95 0 95 89 0 c50 0 93 5
96 10 13 21 15 7 15 -95z m-250 -10 l0 -95 -700 0 -700 0 0 90 0 89 98 4 c53
1 368 4 700 5 l602 2 0 -95z m7055 -55 c4 -6 1 -17 -5 -26 -14 -16 -40 -2 -40
22 0 16 36 19 45 4z m105 -5 c0 -8 -7 -15 -15 -15 -8 0 -15 7 -15 15 0 8 7 15
15 15 8 0 15 -7 15 -15z m111 -9 c15 -32 -5 -73 -27 -55 -8 6 -14 24 -14 39 0
45 24 55 41 16z m-111 -47 c0 -10 -7 -19 -15 -19 -15 0 -21 31 -9 43 11 10 24
-3 24 -24z m-6550 -64 l0 -75 -280 0 -280 0 0 75 0 75 280 0 280 0 0 -75z"/>
<path d="M3710 5081 c-29 -55 2 -126 52 -119 20 3 23 9 23 43 0 36 -3 40 -29
45 -26 4 -27 6 -13 19 11 9 17 10 17 2 0 -6 7 -11 15 -11 8 0 15 9 15 20 0 28
-65 29 -80 1z m57 -85 c-4 -9 -13 -13 -22 -10 -18 7 -20 31 -2 37 17 6 31 -9
24 -27z"/>
<path d="M3811 5074 c-11 -25 -10 -30 13 -52 21 -21 27 -23 40 -12 10 7 16 8
16 2 0 -15 -22 -27 -44 -23 -11 2 -17 -2 -14 -11 3 -7 18 -13 33 -13 41 0 62
39 50 92 -9 34 -13 38 -46 41 -30 3 -37 -1 -48 -24z m58 -7 c12 -15 5 -27 -16
-27 -7 0 -13 9 -13 20 0 23 13 26 29 7z"/>
<path d="M3986 5092 c-2 -4 -7 -24 -11 -45 -10 -50 15 -90 53 -85 26 3 27 6
30 71 l3 67 -35 0 c-19 0 -37 -3 -40 -8z m50 -77 c-5 -24 -11 -32 -21 -28 -18
6 -20 64 -3 81 18 18 31 -12 24 -53z"/>
<path d="M4101 5086 c-7 -8 -11 -37 -9 -68 3 -47 6 -53 26 -56 50 -7 81 64 52
119 -12 22 -52 25 -69 5z m47 -53 c2 -29 -1 -42 -12 -46 -13 -5 -16 3 -16 44
0 62 23 64 28 2z"/>
<path d="M4203 5085 c-16 -18 -17 -97 -1 -113 19 -19 66 -15 78 7 15 28 12 90
-4 107 -18 18 -57 18 -73 -1z m47 -50 c0 -25 -4 -45 -10 -45 -5 0 -10 20 -10
45 0 25 5 45 10 45 6 0 10 -20 10 -45z"/>
<path d="M4360 5015 c0 -42 3 -55 15 -55 11 0 15 12 15 45 0 33 4 45 15 45 11
0 15 -12 15 -45 0 -33 4 -45 15 -45 11 0 15 11 15 43 0 52 -13 67 -57 67 l-33
0 0 -55z"/>
<path d="M4450 5060 c0 -5 7 -10 15 -10 11 0 15 -12 15 -45 0 -33 4 -45 15
-45 19 0 21 80 3 98 -15 15 -48 16 -48 2z"/>
<path d="M4540 5017 c0 -66 16 -77 23 -14 2 27 -1 47 -9 57 -12 12 -14 6 -14
-43z"/>
<path d="M4570 5061 c0 -5 7 -14 15 -21 8 -7 15 -28 15 -46 0 -19 4 -34 9 -34
13 0 20 83 8 98 -11 14 -47 17 -47 3z"/>
<path d="M4630 5062 c0 -5 7 -15 15 -22 8 -7 15 -28 15 -46 0 -19 5 -34 11
-34 6 0 9 21 7 53 -3 45 -6 52 -25 55 -13 2 -23 -1 -23 -6z"/>
<path d="M3920 4975 c0 -8 9 -15 20 -15 11 0 20 7 20 15 0 8 -9 15 -20 15 -11
0 -20 -7 -20 -15z"/>
<path d="M9812 4870 c-30 -49 -4 -114 45 -108 26 3 28 7 31 51 2 27 -2 55 -9
63 -17 20 -52 17 -67 -6z m57 -23 c10 -18 9 -28 -2 -49 -17 -34 -37 -19 -37
27 0 49 19 60 39 22z"/>
<path d="M9978 4854 c-4 -33 -2 -35 19 -29 26 6 40 -13 29 -40 -5 -13 -9 -13
-25 -3 -11 7 -23 9 -27 5 -13 -13 13 -29 42 -25 25 3 29 8 32 39 3 30 -1 38
-20 44 l-23 8 23 4 c36 7 27 33 -12 33 -31 0 -34 -3 -38 -36z"/>
<path d="M10090 4874 c0 -11 6 -14 21 -9 18 6 20 4 14 -15 -5 -15 -1 -25 11
-35 16 -11 16 -15 5 -29 -13 -15 -15 -15 -32 0 -22 20 -33 15 -23 -10 7 -19
57 -22 73 -3 6 8 8 33 4 65 -6 51 -6 52 -39 52 -24 0 -34 -5 -34 -16z"/>
<path d="M10201 4876 c-7 -8 -11 -36 -9 -63 3 -44 5 -48 31 -51 35 -4 56 20
56 63 0 55 -49 86 -78 51z m49 -45 c0 -22 -6 -44 -15 -51 -13 -11 -15 -6 -15
39 0 39 4 51 15 51 11 0 15 -11 15 -39z"/>
<path d="M10360 4808 c0 -54 17 -66 22 -15 2 20 8 32 18 32 10 0 16 -12 18
-32 2 -18 7 -33 12 -33 5 0 10 15 12 33 2 20 8 32 18 32 10 0 16 -12 18 -32 4
-40 22 -44 22 -5 0 65 -6 71 -76 69 l-64 -2 0 -47z"/>
<path d="M9920 4770 c0 -5 7 -10 15 -10 8 0 15 5 15 10 0 6 -7 10 -15 10 -8 0
-15 -4 -15 -10z"/>
<path d="M9800 3535 l0 -65 48 2 c35 1 39 2 15 5 -34 4 -59 26 -48 43 3 5 23
11 43 12 36 1 36 1 5 5 -64 8 -62 46 2 56 22 3 17 4 -17 6 l-48 1 0 -65z"/>
<path d="M9807 3423 c-4 -3 -7 -35 -7 -70 l0 -63 45 0 c54 0 60 18 8 22 -26 2
-38 8 -38 18 0 10 12 16 38 18 20 2 37 7 37 12 0 5 -17 10 -37 12 -26 2 -38 8
-38 18 0 10 12 16 38 18 20 2 37 7 37 13 0 10 -73 13 -83 2z"/>
<path d="M9803 3093 c-65 -6 -54 -33 36 -80 31 -17 31 -17 31 10 0 13 5 28 11
34 16 16 4 43 -18 41 -10 -1 -37 -3 -60 -5z m38 -46 c-1 -12 -15 -9 -19 4 -3
6 1 10 8 8 6 -3 11 -8 11 -12z"/>
<path d="M11270 2942 c0 -24 -4 -28 -27 -27 -21 0 -30 -6 -37 -28 -15 -40 2
-62 48 -62 l36 0 0 73 c0 41 -4 72 -10 72 -5 0 -10 -13 -10 -28z m-5 -72 c0
-15 -6 -26 -16 -28 -19 -3 -31 21 -22 43 9 25 38 13 38 -15z"/>
<path d="M11320 2895 c0 -60 3 -75 15 -75 12 0 15 15 15 75 0 60 -3 75 -15 75
-12 0 -15 -15 -15 -75z"/>
<path d="M10890 2890 c0 -40 4 -70 10 -70 6 0 10 14 10 30 0 25 4 30 25 30 14
0 25 5 25 10 0 6 -11 10 -25 10 -18 0 -25 5 -25 20 0 15 7 20 25 20 14 0 25 5
25 10 0 6 -16 10 -35 10 l-35 0 0 -70z"/>
<path d="M11370 2945 c0 -8 7 -15 15 -15 8 0 15 7 15 15 0 8 -7 15 -15 15 -8
0 -15 -7 -15 -15z"/>
<path d="M10995 2904 c-25 -25 -15 -67 18 -78 21 -8 31 -6 43 5 13 14 12 15
-14 11 -16 -2 -33 1 -36 7 -5 7 5 11 28 11 28 0 36 4 36 18 0 40 -45 55 -75
26z m50 -14 c4 -6 -5 -10 -20 -10 -15 0 -24 4 -20 10 3 6 12 10 20 10 8 0 17
-4 20 -10z"/>
<path d="M11105 2904 c-25 -25 -15 -67 18 -78 21 -8 31 -6 43 5 13 14 12 15
-14 11 -16 -2 -33 1 -36 7 -5 7 5 11 28 11 28 0 36 4 36 18 0 40 -45 55 -75
26z m50 -14 c4 -6 -5 -10 -20 -10 -15 0 -24 4 -20 10 3 6 12 10 20 10 8 0 17
-4 20 -10z"/>
<path d="M11370 2870 c0 -38 4 -50 15 -50 11 0 15 12 15 50 0 38 -4 50 -15 50
-11 0 -15 -12 -15 -50z"/>
<path d="M11430 2868 c0 -57 17 -65 22 -11 2 27 8 39 21 41 14 3 17 -4 17 -37
0 -23 5 -41 11 -41 6 0 9 19 7 48 l-3 47 -37 0 -38 0 0 -47z"/>
<path d="M11555 2904 c-25 -25 -15 -67 18 -78 21 -8 31 -6 43 5 13 14 12 15
-14 11 -16 -2 -33 1 -36 7 -5 7 5 11 28 11 28 0 36 4 36 18 0 40 -45 55 -75
26z m50 -14 c4 -6 -5 -10 -20 -10 -15 0 -24 4 -20 10 3 6 12 10 20 10 8 0 17
-4 20 -10z"/>
<path d="M9881 2864 c0 -11 3 -14 6 -6 3 7 2 16 -1 19 -3 4 -6 -2 -5 -13z"/>
<path d="M9803 2823 c-65 -6 -54 -33 36 -80 31 -17 31 -17 31 10 0 13 5 28 11
34 16 16 4 43 -18 41 -10 -1 -37 -3 -60 -5z m38 -46 c-1 -12 -15 -9 -19 4 -3
6 1 10 8 8 6 -3 11 -8 11 -12z"/>
<path d="M9767 2703 c-12 -12 -7 -50 8 -63 21 -18 29 -6 13 19 -9 15 -10 23
-1 32 8 8 21 1 51 -25 22 -20 42 -36 46 -36 3 0 6 19 5 43 0 37 -1 39 -10 18
l-9 -24 -23 21 c-22 21 -66 29 -80 15z"/>
<path d="M4160 4662 c0 -24 -4 -28 -27 -27 -21 0 -30 -6 -37 -28 -15 -40 2
-62 48 -62 l36 0 0 73 c0 41 -4 72 -10 72 -5 0 -10 -13 -10 -28z m-5 -72 c0
-15 -6 -26 -16 -28 -19 -3 -31 21 -22 43 9 25 38 13 38 -15z"/>
<path d="M4380 4615 c0 -60 3 -75 15 -75 12 0 15 15 15 75 0 60 -3 75 -15 75
-12 0 -15 -15 -15 -75z"/>
<path d="M3537 4660 c-53 -42 -21 -125 46 -118 29 3 32 6 35 41 3 34 1 37 -22
37 -14 0 -26 -4 -26 -10 0 -5 7 -10 15 -10 8 0 15 -9 15 -20 0 -30 -48 -27
-60 4 -18 49 19 90 66 72 10 -4 14 -1 12 6 -7 22 -53 20 -81 -2z"/>
<path d="M4270 4610 c0 -40 4 -70 10 -70 6 0 10 11 10 24 0 18 7 25 30 29 21
5 31 14 36 33 8 32 -15 54 -58 54 l-28 0 0 -70z m60 25 c0 -18 -5 -25 -20 -25
-15 0 -20 7 -20 25 0 18 5 25 20 25 15 0 20 -7 20 -25z"/>
<path d="M3660 4588 c0 -27 5 -48 10 -48 6 0 10 16 10 35 0 22 6 38 15 41 24
9 17 22 -10 20 -23 -1 -25 -5 -25 -48z"/>
<path d="M3746 4624 c-9 -8 -16 -24 -16 -34 0 -10 7 -26 16 -34 32 -33 84 -8
84 39 0 40 -55 59 -84 29z m59 -14 c11 -17 -5 -50 -25 -50 -20 0 -32 23 -24
45 7 17 40 20 49 5z"/>
<path d="M3862 4593 l3 -48 37 0 38 0 0 48 c0 56 -17 64 -22 10 -2 -27 -8 -39
-20 -41 -15 -3 -18 4 -18 37 0 23 -5 41 -11 41 -6 0 -9 -19 -7 -47z"/>
<path d="M3980 4588 c0 -57 17 -65 22 -11 2 27 8 39 21 41 14 3 17 -4 17 -37
0 -23 5 -41 11 -41 6 0 9 19 7 48 l-3 47 -37 0 -38 0 0 -47z"/>
<path d="M4447 4634 c-14 -14 -7 -21 18 -16 14 2 25 0 25 -6 0 -5 -13 -12 -30
-15 -21 -5 -30 -12 -30 -27 0 -20 4 -22 53 -24 27 -2 28 0 25 44 -3 40 -6 45
-28 48 -14 2 -29 0 -33 -4z m43 -64 c0 -5 -9 -10 -20 -10 -11 0 -20 5 -20 10
0 6 9 10 20 10 11 0 20 -4 20 -10z"/>
<path d="M4550 4588 c0 -57 17 -65 22 -11 2 27 8 39 21 41 14 3 17 -4 17 -37
0 -23 5 -41 11 -41 6 0 9 19 7 48 l-3 47 -37 0 -38 0 0 -47z"/>
<path d="M4675 4624 c-25 -25 -15 -67 18 -78 21 -8 31 -6 43 5 13 14 12 15
-14 11 -16 -2 -33 1 -36 7 -5 7 5 11 28 11 28 0 36 4 36 18 0 40 -45 55 -75
26z m50 -14 c4 -6 -5 -10 -20 -10 -15 0 -24 4 -20 10 3 6 12 10 20 10 8 0 17
-4 20 -10z"/>
<path d="M2003 3268 c-5 -7 -11 -41 -11 -76 l-2 -63 53 3 c62 4 69 22 10 26
-29 2 -43 8 -43 17 0 9 14 15 43 17 23 2 42 8 42 13 0 6 -19 11 -42 13 -29 2
-43 8 -43 17 0 9 14 15 43 17 23 2 42 8 42 13 0 15 -80 18 -92 3z"/>
<path d="M1990 3025 l0 -76 50 3 c59 4 67 21 14 28 -54 7 -55 28 -2 32 52 4
53 21 2 28 -54 7 -55 28 -2 32 60 4 54 22 -9 26 l-53 3 0 -76z"/>
<path d="M2023 2879 c-14 -5 -23 -17 -23 -29 0 -11 -4 -20 -10 -20 -5 0 -10 9
-10 20 0 11 -4 20 -10 20 -5 0 -10 -16 -10 -35 0 -33 2 -35 36 -35 30 0 34 3
29 19 -7 24 21 49 38 32 9 -9 9 -16 -1 -32 -19 -30 -5 -37 21 -11 17 17 19 26
11 39 -18 29 -47 42 -71 32z"/>
<path d="M1960 2761 c0 -5 -2 -16 -5 -24 -3 -7 4 -25 15 -38 l21 -24 -6 33
c-5 26 -3 32 11 32 10 0 33 -14 51 -32 38 -37 56 -29 51 22 -4 39 -25 51 -36
20 l-8 -21 -18 20 c-19 21 -76 30 -76 12z"/>
<path d="M1970 2605 c28 -30 34 -31 27 -5 -4 17 1 19 47 23 42 3 37 4 -23 5
l-74 2 23 -25z"/>
<path d="M1961 2452 c1 -26 3 -38 6 -27 10 46 11 46 50 25 41 -22 73 -26 73
-10 0 6 -8 10 -19 10 -10 0 -39 11 -65 25 l-46 24 1 -47z"/>
<path d="M1961 2348 c0 -37 2 -40 10 -20 7 18 14 22 31 17 13 -4 27 -11 33
-16 15 -15 55 -10 55 6 0 10 -10 15 -32 15 -18 0 -44 9 -58 20 -36 28 -40 25
-39 -22z"/>
<path d="M4320 3455 c0 -77 16 -105 22 -38 2 27 8 39 21 41 14 3 17 -4 17 -37
0 -23 5 -41 11 -41 6 0 9 19 7 48 -3 44 -4 47 -30 45 -25 -2 -28 2 -28 28 0
16 -4 29 -10 29 -6 0 -10 -32 -10 -75z"/>
<path d="M3920 3450 c0 -40 4 -70 10 -70 6 0 10 11 10 24 0 18 7 25 30 29 21
5 31 14 36 33 8 32 -15 54 -58 54 l-28 0 0 -70z m60 25 c0 -18 -5 -25 -20 -25
-15 0 -20 7 -20 25 0 18 5 25 20 25 15 0 20 -7 20 -25z"/>
<path d="M4148 3493 c-5 -64 9 -113 32 -113 23 0 27 15 5 24 -8 3 -15 17 -15
31 0 16 6 25 15 25 8 0 15 5 15 10 0 6 -7 10 -15 10 -8 0 -15 7 -15 15 0 21
-20 19 -22 -2z"/>
<path d="M4047 3474 c-14 -14 -7 -21 18 -16 14 2 25 0 25 -6 0 -5 -13 -12 -30
-15 -21 -5 -30 -12 -30 -27 0 -20 4 -22 53 -24 27 -2 28 0 25 44 -3 40 -6 45
-28 48 -14 2 -29 0 -33 -4z m43 -64 c0 -5 -9 -10 -20 -10 -11 0 -20 5 -20 10
0 6 9 10 20 10 11 0 20 -4 20 -10z"/>
<path d="M4235 3464 c-33 -34 -1 -97 41 -79 17 7 17 8 -6 14 -34 9 -36 54 -2
59 12 2 20 8 17 13 -9 14 -32 11 -50 -7z"/>
<path d="M11295 920 c-3 -5 -17 -10 -31 -10 -21 0 -24 -4 -24 -40 0 -29 4 -40
15 -40 10 0 15 11 15 35 0 24 5 35 15 35 10 0 15 -11 15 -35 0 -24 5 -35 15
-35 10 0 15 11 15 35 0 24 5 35 15 35 10 0 15 -11 15 -35 0 -24 5 -35 15 -35
11 0 15 11 15 40 0 40 -5 44 -43 40 -10 -1 -24 4 -32 10 -9 7 -15 8 -20 0z"/>
<path d="M11465 920 c-3 -6 -15 -10 -26 -10 -16 0 -19 -7 -19 -40 0 -29 4 -40
15 -40 10 0 15 11 15 35 0 24 5 35 15 35 10 0 15 -11 15 -35 0 -24 5 -35 15
-35 10 0 15 11 15 35 0 24 5 35 15 35 10 0 15 -11 15 -35 0 -24 5 -35 15 -35
22 0 20 69 -2 86 -13 9 -21 9 -31 1 -10 -8 -19 -8 -32 1 -12 7 -21 8 -25 2z"/>
</g>
</svg>
