<svg width="1834" height="1547" xmlns="http://www.w3.org/2000/svg" xmlns:xlink="http://www.w3.org/1999/xlink" xml:space="preserve" overflow="hidden"><defs><clipPath id="clip0"><rect x="5554" y="375" width="1834" height="1547"/></clipPath><clipPath id="clip1"><rect x="5554" y="440" width="1833" height="1481"/></clipPath><clipPath id="clip2"><rect x="5554" y="440" width="1833" height="1481"/></clipPath><clipPath id="clip3"><rect x="5554" y="440" width="1833" height="1481"/></clipPath><clipPath id="clip4"><rect x="5807" y="649" width="1505" height="1105"/></clipPath><clipPath id="clip5"><rect x="5807" y="649" width="1505" height="1105"/></clipPath><clipPath id="clip6"><rect x="5554" y="440" width="1833" height="1481"/></clipPath><clipPath id="clip7"><rect x="5554" y="440" width="1833" height="1481"/></clipPath><clipPath id="clip8"><rect x="5554" y="440" width="1833" height="1481"/></clipPath><clipPath id="clip9"><rect x="5554" y="440" width="1833" height="1481"/></clipPath><clipPath id="clip10"><rect x="5554" y="440" width="1833" height="1481"/></clipPath><clipPath id="clip11"><rect x="5554" y="440" width="1833" height="1481"/></clipPath><clipPath id="clip12"><rect x="5554" y="440" width="1833" height="1481"/></clipPath><clipPath id="clip13"><rect x="5554" y="440" width="1833" height="1481"/></clipPath><clipPath id="clip14"><rect x="5554" y="440" width="1833" height="1481"/></clipPath><clipPath id="clip15"><rect x="5554" y="440" width="1833" height="1481"/></clipPath><clipPath id="clip16"><rect x="5554" y="440" width="1833" height="1481"/></clipPath><clipPath id="clip17"><rect x="5554" y="440" width="1833" height="1481"/></clipPath><clipPath id="clip18"><rect x="5554" y="440" width="1833" height="1481"/></clipPath><clipPath id="clip19"><rect x="5554" y="440" width="1833" height="1481"/></clipPath><clipPath id="clip20"><rect x="5554" y="440" width="1833" height="1481"/></clipPath><clipPath id="clip21"><rect x="5554" y="440" width="1833" height="1481"/></clipPath><clipPath id="clip22"><rect x="5554" y="440" width="1833" height="1481"/></clipPath><clipPath id="clip23"><rect x="5554" y="440" width="1833" height="1481"/></clipPath><clipPath id="clip24"><rect x="5554" y="440" width="1833" height="1481"/></clipPath><clipPath id="clip25"><rect x="5554" y="440" width="1833" height="1481"/></clipPath><clipPath id="clip26"><rect x="5554" y="440" width="1833" height="1481"/></clipPath><clipPath id="clip27"><rect x="5554" y="440" width="1833" height="1481"/></clipPath><clipPath id="clip28"><rect x="5554" y="440" width="1833" height="1481"/></clipPath><clipPath id="clip29"><rect x="5554" y="440" width="1833" height="1481"/></clipPath><clipPath id="clip30"><rect x="5554" y="440" width="1833" height="1481"/></clipPath><clipPath id="clip31"><rect x="5554" y="440" width="1833" height="1481"/></clipPath><clipPath id="clip32"><rect x="5554" y="440" width="1833" height="1481"/></clipPath><clipPath id="clip33"><rect x="5554" y="440" width="1833" height="1481"/></clipPath></defs><g clip-path="url(#clip0)" transform="translate(-5554 -375)"><text font-family="Arial,Arial_MSFontService,sans-serif" font-weight="400" font-size="50" transform="matrix(1 0 0 1 6261.7 440)">Test</text><g clip-path="url(#clip1)"><path d="M5808 1751 7309 1751M5808 1659.05 7309 1659.05M5808 1567.05 7309 1567.05M5808 1475.05 7309 1475.05M5808 1383.05 7309 1383.05M5808 1292.04 7309 1292.04M5808 1200.04 7309 1200.04M5808 1108.04 7309 1108.04M5808 1016.03 7309 1016.03M5808 924.03 7309 924.03M5808 833.027 7309 833.027M5808 741.024 7309 741.024" stroke="#B8B8B8" stroke-width="2.29167" fill="none"/></g><g clip-path="url(#clip2)"><path d="M0 0 0.000360892 1101" stroke="#000000" stroke-width="4.58333" fill="none" fill-rule="evenodd" transform="matrix(1 0 0 -1 5807.5 1750.5)"/></g><g clip-path="url(#clip3)"><path d="M5807.5 649.5 7309.5 649.5" stroke="#000000" stroke-width="4.58333" fill="none" fill-rule="evenodd"/></g><g clip-path="url(#clip4)"><path d="M5808 1018 5823.19 1029.03 5838.19 1040.03 5854.19 1052.03 5869.19 1065.03 5884.19 1079.04 5900.19 1093.04 5915.19 1106.04 5930.19 1117.04 5946.2 1128.04 5961.2 1136.04 5976.2 1141.04 5991.2 1145.04 6007.2 1145.04 6022.2 1143.04 6037.2 1140.04 6053.2 1136.04 6068.2 1132.04 6083.2 1127.04 6099.2 1124.04 6114.2 1123.04 6129.2 1124.04 6145.2 1127.04 6160.2 1132.04 6175.2 1139.04 6191.2 1147.04 6206.2 1158.04 6221.2 1169.04 6237.2 1180.04 6252.21 1192.04 6267.21 1203.04 6283.21 1213.04 6298.21 1224.04 6313.21 1235.04 6329.21 1246.04 6344.21 1258.04 6359.21 1269.04 6374.21 1280.04 6390.21 1289.04 6405.21 1297.04 6420.21 1303.04 6436.21 1307.04 6451.21 1308.04 6466.21 1308.04 6482.21 1307.04 6497.21 1305.04 6512.21 1304.04 6528.21 1306.04 6543.21 1308.04 6558.22 1313.04 6574.22 1319.04 6589.22 1326.04 6604.22 1335.04 6620.22 1343.04 6635.22 1353.04 6650.22 1364.04 6666.22 1374.05 6681.22 1386.05 6696.22 1399.05 6712.22 1415.05 6727.22 1433.05 6742.22 1452.05 6758.22 1472.05 6773.22 1490.05 6788.22 1506.05 6803.22 1520.05 6819.22 1533.05 6834.22 1547.05 6849.22 1562.05 6865.23 1577.05 6880.23 1591.05 6895.23 1602.05 6911.23 1612.05 6926.23 1623.05 6941.23 1629.05 6957.23 1630 6972.23 1629.05 6987.23 1625.05 7003.23 1619.05 7018.23 1613.05 7033.23 1607.05 7049.23 1602.05 7064.23 1599.05 7079.23 1598.05 7095.23 1596.05 7110.23 1591.05 7125.23 1582.05 7141.23 1567.05 7156.23 1550.05 7171.24 1528.05 7187.24 1503.05 7202.24 1478.05 7217.24 1454.05 7232.24 1431.05 7248.24 1409.05 7263.24 1389.05 7278.24 1370.04 7294.24 1353.04 7309 1338.04" stroke="#00A2FF" stroke-width="18.3333" fill="none"/></g><g clip-path="url(#clip5)"><path d="M5808 1255.04 5823.19 1274.04 5838.19 1293.04 5854.19 1316.04 5869.19 1331.04 5884.19 1354.04 5900.19 1376.05 5915.19 1397.05 5930.19 1421.05 5946.2 1444.05 5961.2 1465.05 5976.2 1492.05 5991.2 1511.05 6007.2 1528.05 6022.2 1539.05 6037.2 1543 6053.2 1542.05 6068.2 1534.05 6083.2 1524.05 6099.2 1510.05 6114.2 1494.05 6129.2 1476.05 6145.2 1458.05 6160.2 1441.05 6175.2 1467.05 6191.2 1414.05 6206.2 1399.05 6221.2 1385.05 6237.2 1370.04 6252.21 1364.04 6267.21 1351.04 6283.21 1341.04 6298.21 1329.04 6313.21 1321.04 6329.21 1314.04 6344.21 1307.04 6359.21 1300.04 6374.21 1293.04 6390.21 1287.04 6405.21 1282.04 6420.21 1277.04 6436.21 1272.04 6451.21 1267.04 6466.21 1262.04 6482.21 1260.04 6497.21 1256.04 6512.21 1253.04 6528.21 1250.04 6543.21 1247.04 6558.22 1245.04 6574.22 1243.04 6589.22 1242.04 6604.22 1240.04 6620.22 1239.04 6635.22 1238.04 6650.22 1237.04 6666.22 1237.04 6681.22 1236 6696.22 1236.04 6712.22 1237.04 6727.22 1237.04 6742.22 1237.04 6758.22 1238.04 6773.22 1239.04 6788.22 1240.04 6803.22 1241.04 6819.22 1243.04 6834.22 1245.04 6849.22 1246.04 6865.23 1248.04 6880.23 1250.04 6895.23 1252.04 6911.23 1255.04 6926.23 1258.04 6941.23 1259.04 6957.23 1262.04 6972.23 1265.04 6987.23 1268.04 7003.23 1271.04 7018.23 1273.04 7033.23 1276.04 7049.23 1279.04 7064.23 1284.04 7079.23 1284.04 7095.23 1287.04 7110.23 1289.04 7125.23 1291.04 7141.23 1293.04 7156.23 1295.04 7171.24 1296.04 7187.24 1297.04 7202.24 1297.04 7217.24 1298.04 7232.24 1297.04 7248.24 1296.04 7263.24 1295.04 7278.24 1293.04 7294.24 1291.04 7309 1289.04" stroke="#61D836" stroke-width="18.3333" fill="none"/></g><g clip-path="url(#clip6)"><text font-family="Arial,Arial_MSFontService,sans-serif" font-weight="400" font-size="46" transform="matrix(1 0 0 1 5638.42 1766)">-36,96</text></g><g clip-path="url(#clip7)"><text font-family="Arial,Arial_MSFontService,sans-serif" font-weight="400" font-size="46" transform="matrix(1 0 0 1 5638.42 1674)">-33,88</text></g><g clip-path="url(#clip8)"><text font-family="Arial,Arial_MSFontService,sans-serif" font-weight="400" font-size="46" transform="matrix(1 0 0 1 5663.9 1582)">-30,8</text></g><g clip-path="url(#clip9)"><text font-family="Arial,Arial_MSFontService,sans-serif" font-weight="400" font-size="46" transform="matrix(1 0 0 1 5638.42 1490)">-27,72</text></g><g clip-path="url(#clip10)"><text font-family="Arial,Arial_MSFontService,sans-serif" font-weight="400" font-size="46" transform="matrix(1 0 0 1 5638.42 1398)">-24,64</text></g><g clip-path="url(#clip11)"><text font-family="Arial,Arial_MSFontService,sans-serif" font-weight="400" font-size="46" transform="matrix(1 0 0 1 5638.42 1307)">-21,56</text></g><g clip-path="url(#clip12)"><text font-family="Arial,Arial_MSFontService,sans-serif" font-weight="400" font-size="46" transform="matrix(1 0 0 1 5638.42 1215)">-18,48</text></g><g clip-path="url(#clip13)"><text font-family="Arial,Arial_MSFontService,sans-serif" font-weight="400" font-size="46" transform="matrix(1 0 0 1 5663.9 1123)">-15,4</text></g><g clip-path="url(#clip14)"><text font-family="Arial,Arial_MSFontService,sans-serif" font-weight="400" font-size="46" transform="matrix(1 0 0 1 5638.42 1031)">-12,32</text></g><g clip-path="url(#clip15)"><text font-family="Arial,Arial_MSFontService,sans-serif" font-weight="400" font-size="46" transform="matrix(1 0 0 1 5663.9 939)">-9,24</text></g><g clip-path="url(#clip16)"><text font-family="Arial,Arial_MSFontService,sans-serif" font-weight="400" font-size="46" transform="matrix(1 0 0 1 5663.9 848)">-6,16</text></g><g clip-path="url(#clip17)"><text font-family="Arial,Arial_MSFontService,sans-serif" font-weight="400" font-size="46" transform="matrix(1 0 0 1 5663.9 756)">-3,08</text></g><g clip-path="url(#clip18)"><text font-family="Arial,Arial_MSFontService,sans-serif" font-weight="400" font-size="46" transform="matrix(1 0 0 1 5742.87 664)">0</text></g><g clip-path="url(#clip19)"><text font-family="Arial,Arial_MSFontService,sans-serif" font-weight="400" font-size="46" transform="matrix(1 0 0 1 5769.57 1820)">862</text></g><g clip-path="url(#clip20)"><text font-family="Arial,Arial_MSFontService,sans-serif" font-weight="400" font-size="46" transform="matrix(1 0 0 1 5922.79 1820)">906</text></g><g clip-path="url(#clip21)"><text font-family="Arial,Arial_MSFontService,sans-serif" font-weight="400" font-size="46" transform="matrix(1 0 0 1 6076.01 1820)">950</text></g><g clip-path="url(#clip22)"><text font-family="Arial,Arial_MSFontService,sans-serif" font-weight="400" font-size="46" transform="matrix(1 0 0 1 6229.23 1820)">994</text></g><g clip-path="url(#clip23)"><text font-family="Arial,Arial_MSFontService,sans-serif" font-weight="400" font-size="46" transform="matrix(1 0 0 1 6369.7 1820)">1038</text></g><g clip-path="url(#clip24)"><text font-family="Arial,Arial_MSFontService,sans-serif" font-weight="400" font-size="46" transform="matrix(1 0 0 1 6522.92 1820)">1082</text></g><g clip-path="url(#clip25)"><text font-family="Arial,Arial_MSFontService,sans-serif" font-weight="400" font-size="46" transform="matrix(1 0 0 1 6676.14 1820)">1126</text></g><g clip-path="url(#clip26)"><text font-family="Arial,Arial_MSFontService,sans-serif" font-weight="400" font-size="46" transform="matrix(1 0 0 1 6829.36 1820)">1170</text></g><g clip-path="url(#clip27)"><text font-family="Arial,Arial_MSFontService,sans-serif" font-weight="400" font-size="46" transform="matrix(1 0 0 1 6982.57 1820)">1214</text></g><g clip-path="url(#clip28)"><text font-family="Arial,Arial_MSFontService,sans-serif" font-weight="400" font-size="46" transform="matrix(1 0 0 1 7135.79 1820)">1258</text></g><g clip-path="url(#clip29)"><text font-family="Arial,Arial_MSFontService,sans-serif" font-weight="400" font-size="46" transform="matrix(6.12323e-17 -1 1 6.12323e-17 5614.95 1228)">dB</text></g><g clip-path="url(#clip30)"><text font-family="Arial,Arial_MSFontService,sans-serif" font-weight="400" font-size="46" transform="matrix(1 0 0 1 6381.58 1886)">Frequency (MHz)</text></g><g clip-path="url(#clip31)"><text font-family="Arial,Arial_MSFontService,sans-serif" font-weight="400" font-size="55" transform="matrix(1 0 0 1 6319.27 593)">Return Loss</text></g><g clip-path="url(#clip32)"><path d="M6268 485 6356 485" stroke="#00A2FF" stroke-width="18.3333" fill="none" fill-rule="evenodd"/></g><g clip-path="url(#clip33)"><path d="M6801 485 6889 485" stroke="#61D836" stroke-width="18.3333" fill="none" fill-rule="evenodd"/></g><text font-family="Arial,Arial_MSFontService,sans-serif" font-weight="400" font-size="50" transform="matrix(1 0 0 1 6728.15 440)">Simulation</text></g></svg>