<svg width="1777" height="1505" xmlns="http://www.w3.org/2000/svg" xmlns:xlink="http://www.w3.org/1999/xlink" xml:space="preserve" overflow="hidden"><defs><clipPath id="clip0"><rect x="3636" y="890" width="1777" height="1505"/></clipPath><clipPath id="clip1"><rect x="3636" y="890" width="1776" height="1504"/></clipPath><clipPath id="clip2"><rect x="3636" y="890" width="1776" height="1504"/></clipPath><clipPath id="clip3"><rect x="3636" y="890" width="1776" height="1504"/></clipPath><clipPath id="clip4"><rect x="3899" y="1128" width="1432" height="1099"/></clipPath><clipPath id="clip5"><rect x="3899" y="1128" width="1432" height="1099"/></clipPath><clipPath id="clip6"><rect x="3636" y="890" width="1776" height="1504"/></clipPath><clipPath id="clip7"><rect x="3636" y="890" width="1776" height="1504"/></clipPath><clipPath id="clip8"><rect x="3636" y="890" width="1776" height="1504"/></clipPath><clipPath id="clip9"><rect x="3636" y="890" width="1776" height="1504"/></clipPath><clipPath id="clip10"><rect x="3636" y="890" width="1776" height="1504"/></clipPath><clipPath id="clip11"><rect x="3636" y="890" width="1776" height="1504"/></clipPath><clipPath id="clip12"><rect x="3636" y="890" width="1776" height="1504"/></clipPath><clipPath id="clip13"><rect x="3636" y="890" width="1776" height="1504"/></clipPath><clipPath id="clip14"><rect x="3636" y="890" width="1776" height="1504"/></clipPath><clipPath id="clip15"><rect x="3636" y="890" width="1776" height="1504"/></clipPath><clipPath id="clip16"><rect x="3636" y="890" width="1776" height="1504"/></clipPath><clipPath id="clip17"><rect x="3636" y="890" width="1776" height="1504"/></clipPath><clipPath id="clip18"><rect x="3636" y="890" width="1776" height="1504"/></clipPath><clipPath id="clip19"><rect x="3636" y="890" width="1776" height="1504"/></clipPath><clipPath id="clip20"><rect x="3636" y="890" width="1776" height="1504"/></clipPath><clipPath id="clip21"><rect x="3636" y="890" width="1776" height="1504"/></clipPath><clipPath id="clip22"><rect x="3636" y="890" width="1776" height="1504"/></clipPath><clipPath id="clip23"><rect x="3636" y="890" width="1776" height="1504"/></clipPath><clipPath id="clip24"><rect x="3636" y="890" width="1776" height="1504"/></clipPath><clipPath id="clip25"><rect x="3636" y="890" width="1776" height="1504"/></clipPath><clipPath id="clip26"><rect x="3636" y="890" width="1776" height="1504"/></clipPath><clipPath id="clip27"><rect x="3636" y="890" width="1776" height="1504"/></clipPath><clipPath id="clip28"><rect x="3636" y="890" width="1776" height="1504"/></clipPath><clipPath id="clip29"><rect x="3636" y="890" width="1776" height="1504"/></clipPath><clipPath id="clip30"><rect x="3636" y="890" width="1776" height="1504"/></clipPath><clipPath id="clip31"><rect x="3636" y="890" width="1776" height="1504"/></clipPath></defs><g clip-path="url(#clip0)" transform="translate(-3636 -890)"><g clip-path="url(#clip1)"><path d="M3899 2125.07 5328 2125.07M3899 2027.07 5328 2027.07M3899 1928.06 5328 1928.06M3899 1830.06 5328 1830.06M3899 1731.06 5328 1731.06M3899 1632.05 5328 1632.05M3899 1534.05 5328 1534.05M3899 1435.05 5328 1435.05M3899 1336.04 5328 1336.04M3899 1238.04 5328 1238.04M3899 1139 5328 1139" stroke="#B8B8B8" stroke-width="2.29167" fill="none"/></g><g clip-path="url(#clip2)"><path d="M0 0 0.000360892 1096" stroke="#000000" stroke-width="4.58333" fill="none" fill-rule="evenodd" transform="matrix(1 0 0 -1 3899.5 2224.5)"/></g><g clip-path="url(#clip3)"><path d="M3899.5 2224.5 5327.5 2224.5" stroke="#000000" stroke-width="4.58333" fill="none" fill-rule="evenodd"/></g><g clip-path="url(#clip4)"><path d="M3899 1501 3941.13 1531.05 3983.13 1565.05 4025.13 1602.05 4067.13 1639.05 4109.13 1675.05 4151.14 1709.06 4193.14 1741.06 4235.14 1769.06 4277.14 1792.06 4319.14 1812.06 4361.14 1827.06 4403.14 1838.06 4445.15 1844.06 4487.15 1846.06 4529.15 1844.06 4571.15 1840.06 4613.15 1834.06 4655.15 1825.06 4697.15 1817.06 4739.16 1810.06 4781.16 1808.06 4824.16 1809.06 4866.16 1813.06 4908.16 1822.06 4950.16 1834.06 4992.16 1848.06 5034.17 1864.06 5076.17 1882.06 5118.17 1898.06 5160.17 1915.06 5202.17 1931.06 5244.17 1945.06 5286.17 1959.06 5328 1973" stroke="#00A2FF" stroke-width="18.3333" fill="none"/></g><g clip-path="url(#clip5)"><path d="M3899 1962 3941.13 1992.07 3983.13 2009.07 4025.13 2027.07 4067.13 2042.07 4109.13 2052.07 4151.14 2070.07 4193.14 2084.07 4235.14 2098.07 4277.14 2111.07 4319.14 2121.07 4361.14 2126.07 4403.14 2136.07 4445.15 2144.07 4487.15 2148.07 4529.15 2151.07 4571.15 2153 4613.15 2152.07 4655.15 2151.07 4697.15 2147.07 4739.16 2147.07 4781.16 2137.07 4824.16 2131.07 4866.16 2125.07 4908.16 2119.07 4950.16 2111.07 4992.16 2104.07 5034.17 2096.07 5076.17 2090.07 5118.17 2081.07 5160.17 2075.07 5202.17 2071.07 5244.17 2061.07 5286.17 2055.07 5328 2049.07" stroke="#61D836" stroke-width="18.3333" fill="none"/></g><g clip-path="url(#clip6)"><text font-family="Arial,Arial_MSFontService,sans-serif" font-weight="400" font-size="46" transform="matrix(1 0 0 1 3834.47 2239)">1</text></g><g clip-path="url(#clip7)"><text font-family="Arial,Arial_MSFontService,sans-serif" font-weight="400" font-size="46" transform="matrix(1 0 0 1 3770.76 2141)">1,09</text></g><g clip-path="url(#clip8)"><text font-family="Arial,Arial_MSFontService,sans-serif" font-weight="400" font-size="46" transform="matrix(1 0 0 1 3770.76 2042)">1,18</text></g><g clip-path="url(#clip9)"><text font-family="Arial,Arial_MSFontService,sans-serif" font-weight="400" font-size="46" transform="matrix(1 0 0 1 3770.76 1943)">1,27</text></g><g clip-path="url(#clip10)"><text font-family="Arial,Arial_MSFontService,sans-serif" font-weight="400" font-size="46" transform="matrix(1 0 0 1 3770.76 1845)">1,36</text></g><g clip-path="url(#clip11)"><text font-family="Arial,Arial_MSFontService,sans-serif" font-weight="400" font-size="46" transform="matrix(1 0 0 1 3770.76 1746)">1,45</text></g><g clip-path="url(#clip12)"><text font-family="Arial,Arial_MSFontService,sans-serif" font-weight="400" font-size="46" transform="matrix(1 0 0 1 3770.76 1647)">1,54</text></g><g clip-path="url(#clip13)"><text font-family="Arial,Arial_MSFontService,sans-serif" font-weight="400" font-size="46" transform="matrix(1 0 0 1 3770.76 1549)">1,63</text></g><g clip-path="url(#clip14)"><text font-family="Arial,Arial_MSFontService,sans-serif" font-weight="400" font-size="46" transform="matrix(1 0 0 1 3770.76 1450)">1,72</text></g><g clip-path="url(#clip15)"><text font-family="Arial,Arial_MSFontService,sans-serif" font-weight="400" font-size="46" transform="matrix(1 0 0 1 3770.76 1351)">1,81</text></g><g clip-path="url(#clip16)"><text font-family="Arial,Arial_MSFontService,sans-serif" font-weight="400" font-size="46" transform="matrix(1 0 0 1 3796.25 1253)">1,9</text></g><g clip-path="url(#clip17)"><text font-family="Arial,Arial_MSFontService,sans-serif" font-weight="400" font-size="46" transform="matrix(1 0 0 1 3770.76 1154)">1,99</text></g><g clip-path="url(#clip18)"><text font-family="Arial,Arial_MSFontService,sans-serif" font-weight="400" font-size="46" transform="matrix(1 0 0 1 3842.06 2294)">857,6</text></g><g clip-path="url(#clip19)"><text font-family="Arial,Arial_MSFontService,sans-serif" font-weight="400" font-size="46" transform="matrix(1 0 0 1 4010.11 2294)">875,2</text></g><g clip-path="url(#clip20)"><text font-family="Arial,Arial_MSFontService,sans-serif" font-weight="400" font-size="46" transform="matrix(1 0 0 1 4178.16 2294)">892,8</text></g><g clip-path="url(#clip21)"><text font-family="Arial,Arial_MSFontService,sans-serif" font-weight="400" font-size="46" transform="matrix(1 0 0 1 4346.21 2294)">910,4</text></g><g clip-path="url(#clip22)"><text font-family="Arial,Arial_MSFontService,sans-serif" font-weight="400" font-size="46" transform="matrix(1 0 0 1 4533.37 2294)">928</text></g><g clip-path="url(#clip23)"><text font-family="Arial,Arial_MSFontService,sans-serif" font-weight="400" font-size="46" transform="matrix(1 0 0 1 4682.3 2294)">945,6</text></g><g clip-path="url(#clip24)"><text font-family="Arial,Arial_MSFontService,sans-serif" font-weight="400" font-size="46" transform="matrix(1 0 0 1 4850.35 2294)">963,2</text></g><g clip-path="url(#clip25)"><text font-family="Arial,Arial_MSFontService,sans-serif" font-weight="400" font-size="46" transform="matrix(1 0 0 1 5018.4 2294)">980,8</text></g><g clip-path="url(#clip26)"><text font-family="Arial,Arial_MSFontService,sans-serif" font-weight="400" font-size="46" transform="matrix(1 0 0 1 5186.45 2294)">998,4</text></g><g clip-path="url(#clip27)"><text font-family="Arial,Arial_MSFontService,sans-serif" font-weight="400" font-size="46" transform="matrix(6.12323e-17 -1 1 6.12323e-17 3747.3 1713)">V/V</text></g><g clip-path="url(#clip28)"><text font-family="Arial,Arial_MSFontService,sans-serif" font-weight="400" font-size="46" transform="matrix(1 0 0 1 4436.62 2360)">Frequency (MHz)</text></g><g clip-path="url(#clip29)"><text font-family="Arial,Arial_MSFontService,sans-serif" font-weight="400" font-size="55" transform="matrix(1 0 0 1 4430.63 1072)">VSWR</text></g><g clip-path="url(#clip30)"><path d="M4284 935 4372 935" stroke="#00A2FF" stroke-width="18.3333" fill="none" fill-rule="evenodd"/></g><g clip-path="url(#clip31)"><path d="M4856 935 4944 935" stroke="#61D836" stroke-width="18.3333" fill="none" fill-rule="evenodd"/></g></g></svg>